# xmcd CD database file
#
# Track frame offsets:
#	150
#	14765
#	32762
#	47352
#
# Disc length: 867 seconds
#
# Revision: 1
# Processed by: cddbd v1.5.2PL0 Copyright (c) Steve Scherf et al.
# Submitted via: CDex 1.70beta2
#
DISCID=29036104
DTITLE=Petit milady - 鏡のデュアル・イズム
DYEAR=2013
DGENRE=Vocal
TTITLE0=鏡のデュアル・イズム
TTITLE1=100％サイダーガール
TTITLE2=鏡のデュアル・イズム(Instrumental)
TTITLE3=100％サイダーガール(Instrumental)
EXTD=YEAR: 2013
EXTT0=
EXTT1=
EXTT2=
EXTT3=
PLAYORDER=
